<svg xmlns="http://www.w3.org/2000/svg" xmlns:xlink="http://www.w3.org/1999/xlink" width="500" zoomAndPan="magnify" viewBox="0 0 375 374.999991" height="500" preserveAspectRatio="xMidYMid meet" version="1.0"><defs><clipPath id="133f2fdc39"><path d="M 3.632812 3.632812 L 371.132812 3.632812 L 371.132812 371.132812 L 3.632812 371.132812 Z M 3.632812 3.632812 " clip-rule="nonzero"/></clipPath><clipPath id="b10f3640c8"><path d="M 30.488281 107 L 141 107 L 141 268 L 30.488281 268 Z M 30.488281 107 " clip-rule="nonzero"/></clipPath><clipPath id="92f6d913c9"><path d="M 234 107 L 344.738281 107 L 344.738281 268 L 234 268 Z M 234 107 " clip-rule="nonzero"/></clipPath><clipPath id="a6e7246609"><path d="M 132 65.601562 L 241 65.601562 L 241 309.351562 L 132 309.351562 Z M 132 65.601562 " clip-rule="nonzero"/></clipPath></defs><g clip-path="url(#133f2fdc39)"><path fill="#171810" d="M 371.367188 187.5 C 371.367188 190.507812 371.292969 193.515625 371.144531 196.519531 C 370.996094 199.527344 370.777344 202.527344 370.480469 205.519531 C 370.1875 208.515625 369.816406 211.5 369.375 214.476562 C 368.933594 217.453125 368.421875 220.417969 367.832031 223.371094 C 367.246094 226.320312 366.585938 229.257812 365.855469 232.175781 C 365.125 235.09375 364.324219 237.992188 363.449219 240.871094 C 362.574219 243.753906 361.632812 246.609375 360.617188 249.441406 C 359.605469 252.273438 358.523438 255.082031 357.371094 257.863281 C 356.21875 260.640625 355 263.390625 353.714844 266.113281 C 352.425781 268.832031 351.074219 271.519531 349.65625 274.171875 C 348.238281 276.828125 346.753906 279.445312 345.207031 282.027344 C 343.660156 284.605469 342.050781 287.148438 340.378906 289.648438 C 338.707031 292.152344 336.976562 294.613281 335.183594 297.027344 C 333.390625 299.445312 331.539062 301.816406 329.628906 304.144531 C 327.722656 306.46875 325.757812 308.746094 323.734375 310.976562 C 321.714844 313.207031 319.640625 315.386719 317.511719 317.511719 C 315.386719 319.640625 313.207031 321.714844 310.976562 323.734375 C 308.746094 325.757812 306.46875 327.722656 304.144531 329.628906 C 301.816406 331.539062 299.445312 333.390625 297.027344 335.183594 C 294.613281 336.976562 292.152344 338.707031 289.648438 340.378906 C 287.148438 342.050781 284.605469 343.660156 282.027344 345.207031 C 279.445312 346.753906 276.828125 348.238281 274.171875 349.65625 C 271.519531 351.074219 268.832031 352.425781 266.113281 353.714844 C 263.390625 355 260.640625 356.21875 257.863281 357.371094 C 255.082031 358.523438 252.273438 359.605469 249.441406 360.617188 C 246.609375 361.632812 243.753906 362.574219 240.871094 363.449219 C 237.992188 364.324219 235.09375 365.125 232.175781 365.855469 C 229.257812 366.585938 226.320312 367.246094 223.371094 367.832031 C 220.417969 368.421875 217.453125 368.933594 214.476562 369.375 C 211.5 369.816406 208.515625 370.1875 205.519531 370.480469 C 202.527344 370.777344 199.527344 370.996094 196.519531 371.144531 C 193.515625 371.292969 190.507812 371.367188 187.5 371.367188 C 184.488281 371.367188 181.484375 371.292969 178.476562 371.144531 C 175.472656 370.996094 172.472656 370.777344 169.476562 370.480469 C 166.480469 370.1875 163.496094 369.816406 160.519531 369.375 C 157.542969 368.933594 154.578125 368.421875 151.628906 367.832031 C 148.675781 367.246094 145.742188 366.585938 142.824219 365.855469 C 139.902344 365.125 137.003906 364.324219 134.125 363.449219 C 131.246094 362.574219 128.390625 361.632812 125.554688 360.617188 C 122.722656 359.605469 119.917969 358.523438 117.136719 357.371094 C 114.355469 356.21875 111.605469 355 108.886719 353.714844 C 106.164062 352.425781 103.476562 351.074219 100.824219 349.65625 C 98.171875 348.238281 95.554688 346.753906 92.972656 345.207031 C 90.390625 343.660156 87.851562 342.050781 85.347656 340.378906 C 82.847656 338.707031 80.386719 336.976562 77.96875 335.183594 C 75.550781 333.390625 73.179688 331.539062 70.855469 329.628906 C 68.527344 327.722656 66.25 325.757812 64.019531 323.734375 C 61.792969 321.714844 59.613281 319.640625 57.484375 317.511719 C 55.359375 315.386719 53.285156 313.207031 51.261719 310.976562 C 49.242188 308.746094 47.277344 306.46875 45.367188 304.144531 C 43.457031 301.816406 41.609375 299.445312 39.816406 297.027344 C 38.023438 294.613281 36.289062 292.152344 34.617188 289.648438 C 32.949219 287.148438 31.339844 284.605469 29.789062 282.027344 C 28.242188 279.445312 26.761719 276.828125 25.34375 274.171875 C 23.925781 271.519531 22.570312 268.832031 21.285156 266.113281 C 20 263.390625 18.78125 260.640625 17.628906 257.863281 C 16.476562 255.082031 15.394531 252.273438 14.378906 249.441406 C 13.367188 246.609375 12.421875 243.753906 11.550781 240.871094 C 10.675781 237.992188 9.875 235.09375 9.140625 232.175781 C 8.410156 229.257812 7.75 226.320312 7.164062 223.371094 C 6.578125 220.417969 6.0625 217.453125 5.621094 214.476562 C 5.179688 211.5 4.8125 208.515625 4.515625 205.519531 C 4.222656 202.527344 4 199.527344 3.851562 196.519531 C 3.707031 193.515625 3.632812 190.507812 3.632812 187.5 C 3.632812 184.488281 3.707031 181.484375 3.851562 178.476562 C 4 175.472656 4.222656 172.472656 4.515625 169.476562 C 4.8125 166.480469 5.179688 163.496094 5.621094 160.519531 C 6.0625 157.542969 6.578125 154.578125 7.164062 151.628906 C 7.75 148.675781 8.410156 145.742188 9.140625 142.824219 C 9.875 139.902344 10.675781 137.003906 11.550781 134.125 C 12.421875 131.246094 13.367188 128.390625 14.378906 125.554688 C 15.394531 122.722656 16.476562 119.917969 17.628906 117.136719 C 18.78125 114.355469 20 111.605469 21.285156 108.886719 C 22.570312 106.164062 23.925781 103.476562 25.34375 100.824219 C 26.761719 98.171875 28.242188 95.554688 29.789062 92.972656 C 31.339844 90.390625 32.949219 87.851562 34.617188 85.347656 C 36.289062 82.847656 38.023438 80.386719 39.816406 77.96875 C 41.609375 75.550781 43.457031 73.179688 45.367188 70.855469 C 47.277344 68.527344 49.242188 66.25 51.261719 64.019531 C 53.285156 61.792969 55.359375 59.613281 57.484375 57.484375 C 59.613281 55.359375 61.792969 53.285156 64.019531 51.261719 C 66.25 49.242188 68.527344 47.277344 70.855469 45.367188 C 73.179688 43.457031 75.550781 41.609375 77.96875 39.816406 C 80.386719 38.023438 82.847656 36.289062 85.347656 34.617188 C 87.851562 32.949219 90.390625 31.339844 92.972656 29.789062 C 95.554688 28.242188 98.171875 26.761719 100.824219 25.34375 C 103.476562 23.925781 106.164062 22.570312 108.886719 21.285156 C 111.605469 20 114.355469 18.78125 117.136719 17.628906 C 119.917969 16.476562 122.722656 15.394531 125.554688 14.378906 C 128.390625 13.367188 131.246094 12.421875 134.125 11.550781 C 137.003906 10.675781 139.902344 9.875 142.824219 9.140625 C 145.742188 8.410156 148.675781 7.75 151.628906 7.164062 C 154.578125 6.578125 157.542969 6.0625 160.519531 5.621094 C 163.496094 5.179688 166.480469 4.8125 169.476562 4.515625 C 172.472656 4.222656 175.472656 4 178.476562 3.851562 C 181.484375 3.707031 184.488281 3.632812 187.5 3.632812 C 190.507812 3.632812 193.515625 3.707031 196.519531 3.851562 C 199.527344 4 202.527344 4.222656 205.519531 4.515625 C 208.515625 4.8125 211.5 5.179688 214.476562 5.621094 C 217.453125 6.0625 220.417969 6.578125 223.371094 7.164062 C 226.320312 7.75 229.257812 8.410156 232.175781 9.140625 C 235.09375 9.875 237.992188 10.675781 240.871094 11.550781 C 243.753906 12.421875 246.609375 13.367188 249.441406 14.378906 C 252.273438 15.394531 255.082031 16.476562 257.863281 17.628906 C 260.640625 18.78125 263.390625 20 266.113281 21.285156 C 268.832031 22.570312 271.519531 23.925781 274.171875 25.34375 C 276.828125 26.761719 279.445312 28.242188 282.027344 29.789062 C 284.605469 31.339844 287.148438 32.949219 289.648438 34.617188 C 292.152344 36.289062 294.613281 38.023438 297.027344 39.816406 C 299.445312 41.609375 301.816406 43.457031 304.144531 45.367188 C 306.46875 47.277344 308.746094 49.242188 310.976562 51.261719 C 313.207031 53.285156 315.386719 55.359375 317.511719 57.484375 C 319.640625 59.613281 321.714844 61.792969 323.734375 64.019531 C 325.757812 66.25 327.722656 68.527344 329.628906 70.855469 C 331.539062 73.179688 333.390625 75.550781 335.183594 77.96875 C 336.976562 80.386719 338.707031 82.847656 340.378906 85.347656 C 342.050781 87.851562 343.660156 90.390625 345.207031 92.972656 C 346.753906 95.554688 348.238281 98.171875 349.65625 100.824219 C 351.074219 103.476562 352.425781 106.164062 353.714844 108.886719 C 355 111.605469 356.21875 114.355469 357.371094 117.136719 C 358.523438 119.917969 359.605469 122.722656 360.617188 125.554688 C 361.632812 128.390625 362.574219 131.246094 363.449219 134.125 C 364.324219 137.003906 365.125 139.902344 365.855469 142.824219 C 366.585938 145.742188 367.246094 148.675781 367.832031 151.628906 C 368.421875 154.578125 368.933594 157.542969 369.375 160.519531 C 369.816406 163.496094 370.1875 166.480469 370.480469 169.476562 C 370.777344 172.472656 370.996094 175.472656 371.144531 178.476562 C 371.292969 181.484375 371.367188 184.488281 371.367188 187.5 Z M 371.367188 187.5 " fill-opacity="1" fill-rule="nonzero"/></g><path fill="#02e477" d="M 129.558594 264.367188 C 127.824219 264.367188 126.113281 263.785156 124.75 262.699219 L 36.929688 193.601562 C 35.039062 192.117188 33.957031 189.894531 33.957031 187.496094 C 33.957031 185.097656 35.039062 182.871094 36.921875 181.375 L 124.75 112.292969 C 126.113281 111.207031 127.824219 110.625 129.558594 110.625 C 131.957031 110.625 134.195312 111.695312 135.664062 113.589844 C 136.949219 115.21875 137.535156 117.261719 137.28125 119.316406 C 137.042969 121.382812 135.996094 123.222656 134.367188 124.507812 L 54.328125 187.496094 L 134.367188 250.46875 C 135.996094 251.765625 137.042969 253.609375 137.28125 255.660156 C 137.535156 257.730469 136.949219 259.757812 135.664062 261.398438 C 134.195312 263.28125 131.957031 264.367188 129.558594 264.367188 " fill-opacity="1" fill-rule="nonzero"/><g clip-path="url(#b10f3640c8)"><path fill="#02e477" d="M 129.558594 107.3125 C 127.082031 107.3125 124.65625 108.144531 122.707031 109.683594 L 34.878906 178.777344 C 32.183594 180.910156 30.644531 184.078125 30.644531 187.496094 C 30.644531 190.914062 32.195312 194.09375 34.878906 196.210938 L 122.707031 265.308594 C 124.640625 266.832031 127.082031 267.679688 129.558594 267.679688 C 132.988281 267.679688 136.167969 266.128906 138.277344 263.4375 C 140.117188 261.121094 140.925781 258.21875 140.582031 255.277344 C 140.222656 252.335938 138.753906 249.699219 136.421875 247.871094 L 59.683594 187.496094 L 136.421875 127.117188 C 138.753906 125.277344 140.222656 122.652344 140.582031 119.710938 C 140.925781 116.769531 140.117188 113.867188 138.277344 111.539062 C 136.167969 108.847656 132.976562 107.3125 129.558594 107.3125 Z M 129.558594 113.933594 C 130.882812 113.933594 132.195312 114.519531 133.070312 115.632812 C 134.605469 117.578125 134.261719 120.386719 132.328125 121.910156 L 48.964844 187.496094 L 132.328125 253.078125 C 134.261719 254.601562 134.605469 257.410156 133.070312 259.34375 C 132.195312 260.472656 130.882812 261.054688 129.558594 261.054688 C 128.589844 261.054688 127.625 260.75 126.800781 260.101562 L 38.972656 191.007812 C 37.902344 190.15625 37.269531 188.859375 37.269531 187.496094 C 37.269531 186.117188 37.902344 184.832031 38.972656 183.984375 L 126.800781 114.890625 C 127.609375 114.238281 128.589844 113.933594 129.558594 113.933594 " fill-opacity="1" fill-rule="nonzero"/></g><path fill="#02e477" d="M 245.433594 264.367188 C 243.039062 264.367188 240.8125 263.28125 239.3125 261.398438 C 236.664062 258.035156 237.246094 253.132812 240.625 250.46875 L 320.675781 187.496094 L 240.625 124.507812 C 237.246094 121.859375 236.664062 116.957031 239.3125 113.589844 C 240.8125 111.695312 243.039062 110.621094 245.433594 110.621094 C 247.171875 110.621094 248.878906 111.207031 250.246094 112.292969 L 338.074219 181.375 C 339.957031 182.871094 341.027344 185.097656 341.027344 187.496094 C 341.027344 189.894531 339.957031 192.117188 338.0625 193.601562 L 250.246094 262.699219 C 248.878906 263.785156 247.171875 264.367188 245.433594 264.367188 " fill-opacity="1" fill-rule="nonzero"/><g clip-path="url(#92f6d913c9)"><path fill="#02e477" d="M 245.433594 107.3125 C 242.015625 107.3125 238.835938 108.847656 236.71875 111.539062 C 232.929688 116.347656 233.761719 123.328125 238.574219 127.117188 L 315.3125 187.496094 L 238.574219 247.871094 C 233.761719 251.648438 232.929688 258.644531 236.71875 263.4375 C 238.835938 266.128906 242.015625 267.679688 245.433594 267.679688 C 247.914062 267.679688 250.335938 266.832031 252.285156 265.308594 L 340.113281 196.210938 C 342.804688 194.09375 344.339844 190.914062 344.339844 187.496094 C 344.339844 184.078125 342.804688 180.910156 340.128906 178.777344 L 252.296875 109.683594 C 250.351562 108.144531 247.914062 107.3125 245.433594 107.3125 Z M 245.433594 113.933594 C 246.402344 113.933594 247.382812 114.238281 248.191406 114.890625 L 336.019531 183.984375 C 337.09375 184.832031 337.714844 186.117188 337.714844 187.496094 C 337.714844 188.859375 337.09375 190.15625 336.019531 191.007812 L 248.191406 260.101562 C 247.382812 260.75 246.402344 261.054688 245.433594 261.054688 C 244.109375 261.054688 242.796875 260.472656 241.925781 259.34375 C 240.402344 257.410156 240.730469 254.601562 242.667969 253.078125 L 326.03125 187.496094 L 242.667969 121.910156 C 240.730469 120.386719 240.402344 117.578125 241.925781 115.632812 C 242.796875 114.519531 244.125 113.933594 245.433594 113.933594 " fill-opacity="1" fill-rule="nonzero"/></g><path fill="#02e477" d="M 143.855469 306.0625 C 142.886719 306.0625 141.945312 305.875 141.046875 305.53125 C 139.109375 304.777344 137.574219 303.320312 136.738281 301.425781 C 135.890625 299.515625 135.851562 297.410156 136.59375 295.476562 L 222.367188 73.894531 C 223.519531 70.929688 226.4375 68.929688 229.617188 68.929688 C 230.582031 68.929688 231.535156 69.113281 232.4375 69.457031 C 236.425781 71.007812 238.425781 75.527344 236.875 79.527344 L 151.113281 301.09375 C 149.960938 304.0625 147.035156 306.0625 143.855469 306.0625 " fill-opacity="1" fill-rule="nonzero"/><g clip-path="url(#a6e7246609)"><path fill="#02e477" d="M 229.617188 65.617188 C 225.070312 65.617188 220.910156 68.476562 219.28125 72.703125 L 133.507812 294.269531 C 132.445312 297.039062 132.511719 300.046875 133.703125 302.761719 C 134.910156 305.464844 137.082031 307.558594 139.851562 308.617188 C 141.136719 309.121094 142.476562 309.375 143.855469 309.375 C 148.398438 309.375 152.558594 306.527344 154.203125 302.285156 L 239.964844 80.71875 C 242.175781 75.007812 239.328125 68.570312 233.617188 66.371094 C 232.34375 65.867188 230.992188 65.617188 229.617188 65.617188 Z M 229.617188 72.238281 C 230.160156 72.238281 230.703125 72.347656 231.230469 72.542969 C 233.539062 73.433594 234.675781 76.015625 233.789062 78.320312 L 148.015625 299.886719 C 147.339844 301.664062 145.640625 302.75 143.855469 302.75 C 143.3125 302.75 142.765625 302.65625 142.238281 302.445312 C 139.933594 301.558594 138.792969 298.960938 139.695312 296.667969 L 225.457031 75.101562 C 226.144531 73.328125 227.828125 72.238281 229.617188 72.238281 " fill-opacity="1" fill-rule="nonzero"/></g></svg>